<svg width="431" height="128" viewBox="0 0 431 128" fill="none" xmlns="http://www.w3.org/2000/svg">
<path d="M366.461 20.0489C372.371 22.8489 379.081 22.4389 385.371 23.8689C392.721 25.5489 399.701 28.8089 407.251 29.9689C412.551 30.7889 423.851 30.3489 427.821 32.8889C430.511 34.6089 431.361 38.4989 429.791 41.2989C427.911 44.6389 416.621 44.3789 413.091 44.5789C411.741 44.6589 410.561 45.0989 409.141 45.1189C402.521 45.2389 393.381 43.5989 387.251 44.7089C376.291 46.7089 372.671 71.8289 373.461 80.7489C373.961 86.4489 377.201 90.7289 375.671 96.5789C374.791 99.9389 371.721 103.329 370.311 106.699C367.691 112.979 366.831 116.689 362.621 122.489C361.201 124.449 357.931 126.489 355.541 126.899C352.611 127.399 344.721 126.959 343.641 123.549C342.491 119.909 348.361 109.769 350.331 106.199C353.711 100.059 358.171 96.7289 356.881 88.8289C356.411 85.9589 348.941 83.8189 346.471 83.8089C344.791 83.8089 339.591 87.7789 338.191 89.0589C333.751 93.1589 332.671 95.9089 326.631 98.9789C320.591 102.049 309.531 103.919 306.181 110.009C302.651 116.439 301.051 126.709 291.651 127.499C289.031 127.719 280.531 126.359 280.071 123.169C279.611 119.979 283.791 112.109 285.381 109.199C288.231 103.999 297.671 93.0089 292.701 87.0689C290.571 84.5189 279.321 82.8789 276.111 83.9389C271.201 85.5589 265.581 93.8989 261.141 96.9489C252.071 103.179 237.541 106.649 226.901 109.679C225.391 110.109 223.671 111.279 222.231 111.499C217.761 112.189 205.141 109.759 212.001 103.769C213.851 102.159 217.001 101.269 219.161 99.9389C223.041 97.5489 229.451 94.0989 232.741 91.5289C237.621 87.7189 241.951 81.0189 246.731 76.5389C251.311 72.2489 257.561 69.0189 260.231 63.0589C261.561 60.0889 265.391 50.0389 265.901 47.1989C266.321 44.8489 264.511 43.8689 262.521 43.2989C258.201 42.0689 248.681 44.4989 244.251 46.0689C241.291 47.1189 238.321 49.3989 235.501 50.3089C233.171 51.0589 231.251 50.7089 229.391 51.1889C228.261 51.4789 227.061 53.1489 225.671 53.4589C222.391 54.1989 214.271 51.9989 214.631 47.9489C214.811 45.9689 216.691 44.9789 217.651 43.4389C219.771 40.0389 220.511 37.2689 224.271 35.0689C240.171 25.7489 258.291 23.6589 275.881 19.2289C278.141 18.6589 281.331 19.6489 282.271 16.6189C282.921 14.4989 282.461 10.8589 283.111 8.46888C285.531 -0.421124 300.161 -1.92113 306.461 3.36887C308.411 5.00887 307.441 9.36886 306.731 11.6089C305.961 14.0589 300.671 17.6789 303.501 19.8189C305.581 21.3889 314.431 20.2789 317.661 20.6489C320.371 20.9589 324.281 23.3789 326.211 23.3689C327.701 23.3689 331.001 21.6189 332.841 21.2289C335.891 20.5789 338.681 20.8689 341.571 20.4589C350.161 19.2289 344.711 13.7589 346.421 8.31888C349.061 -0.101118 364.311 -2.93113 369.701 3.58887C374.321 9.18887 364.711 17.0889 366.521 20.0089L366.461 20.0489ZM303.811 39.2189C301.191 39.4689 299.681 40.4489 299.141 43.0789C297.101 52.9889 301.501 66.9889 306.651 75.5889C308.631 78.8889 309.571 80.5789 313.571 78.4889C318.921 75.6889 334.281 59.0889 335.271 53.2289C337.021 42.8889 332.031 40.8089 322.801 43.2589C319.961 44.0089 317.421 46.9589 314.741 46.0289C313.891 45.7289 311.861 41.8089 310.081 40.6989C308.451 39.6889 305.741 39.0389 303.821 39.2189H303.811Z" fill="#003F2B"/>
<path d="M50.3155 65.4628L54.7061 58.8981C57.5206 55.7099 61.0231 52.2832 65.6264 52.3083C67.8029 52.3083 72.0559 54.4673 73.632 54.0907C76.0463 53.5134 78.1978 46.4089 82.113 53.9527C84.6899 58.9233 86.9164 70.7472 87.742 76.5211C88.2924 80.4248 87.2167 86.9016 90.2688 90.2907C90.544 90.6045 96.5608 93.391 97.4739 93.7174C104.166 96.052 110.984 97.7215 116.487 92.0605C128.021 80.1989 106.08 75.4793 102.665 68.4377C100.001 62.9148 102.44 52.0824 108.419 49.4841C114.398 46.8859 122.854 46.5846 128.121 51.0406C132.123 54.4171 132.361 61.6094 126.219 62.4002L125.419 62.2244C123.08 55.7225 113.936 52.459 110.045 59.2622C106.168 66.0653 114.186 66.5925 117.776 68.9523C118.839 69.6552 119.902 71.0987 120.966 72.0401C122.379 73.2827 122.967 72.379 124.28 74.9396C127.195 80.6131 127.833 94.6211 122.779 99.0143C113.51 107.085 102.14 106.031 91.5697 101.512C88.7177 100.295 81.0998 95.1734 79.3111 94.96C75.2082 94.4454 66.8147 98.0604 61.8362 98.1106C53.9306 98.1984 48.6018 88.1568 45.9124 81.793L39.683 90.8932C13.2392 114.754 -9.37678 84.1151 3.93265 56.2748C12.0759 39.2543 38.357 30.2671 48.1265 51.0406C48.4892 51.8063 50.303 56.0865 50.303 56.3877V65.4754L50.3155 65.4628ZM24.5222 47.4256C17.4798 48.6934 12.4637 63.7683 10.775 70.0067C8.19818 79.5211 6.87225 90.6672 20.0941 91.1317C28.0873 91.4204 33.3285 86.864 37.8067 80.8265C42.0096 75.153 46.4628 56.3626 40.2834 51.3795C38.1194 49.6348 27.2742 46.9235 24.5097 47.4256H24.5222ZM63.2747 63.7307C57.0453 64.8478 51.8916 73.358 52.8548 79.5336C53.4678 83.4624 60.0349 88.7719 63.8001 89.2363C71.2053 90.1526 79.949 84.2155 78.6982 76.0567C77.4473 67.8979 71.6306 62.2244 63.2622 63.7307H63.2747Z" fill="#003F2B"/>
<path d="M145.324 90.1877C146.637 91.4954 150.893 90.7033 152.927 91.1056C154.745 91.4703 156.185 93.1928 157.802 93.7838C163.725 95.9339 170.431 97.4679 175.786 93.4695C190.777 82.2664 167.741 75.5646 163.573 68.5611C161.717 65.4303 162.588 58.0496 164.066 54.793C166.806 48.7451 178.16 46.3938 184.021 48.2044C188.782 49.6755 194.415 55.9624 190.904 60.7906C187.001 66.1596 184.791 58.7034 182.366 56.7545C177.504 52.8441 166.213 59.3698 171.315 65.2417C173.26 67.4798 176.885 67.7941 179.221 69.303C187.696 74.8102 189.54 85.3218 186.205 94.4125C184.362 99.4545 181.28 101.328 176.266 103.365C168.246 106.647 156.109 104.421 147.976 101.655C145.867 100.938 143.063 99.9197 143.265 97.229L138.668 99.0396C134.664 98.0211 137.026 84.8691 136.988 81.1851C136.9 71.1764 133.932 60.6146 138.731 50.9329C141.232 45.8909 145.02 45.1616 145.437 51.9137C145.829 58.3011 145.551 68.4102 145.159 74.9234C144.945 78.5697 142.065 86.9438 145.311 90.1752L145.324 90.1877Z" fill="#003F2B"/>
<path d="M141.101 24.2423C148.275 22.0476 151.163 35.3561 150.993 40.2686C145.518 46.1254 134.319 35.7389 136.213 29.6652C136.344 29.2441 140.656 24.3699 141.101 24.2423Z" fill="#003F2B"/>
</svg>
